<?xml version="1.0" encoding="UTF-8"?>
<!DOCTYPE svg PUBLIC "-//W3C//DTD SVG 1.1//EN"
  "http://www.w3.org/Graphics/SVG/1.1/DTD/svg11.dtd">
<svg xmlns="http://www.w3.org/2000/svg" xmlns:xlink="http://www.w3.org/1999/xlink"   viewBox="0.00 0.00 400.00 200.00">
<!-- Created by OpenEye Scientific Software -->
<!-- Creation Date Fri Apr 14 17:19:26 2017 -->
<style type="text/css">
.oedepict-hidden {
 visibility: hidden;
}

.oedepict-visible {
 visibility: visible;
}

.oedepict-hover:hover {
 cursor: pointer;
}

</style>
<script type="text/ecmascript"><![CDATA[

document.addEventListener("DOMContentLoaded", init);

function init() {
	var group_a_9face1e8c3da448d = document.querySelector('#a_9face1e8c3da448d'); 
	group_a_9face1e8c3da448d.addEventListener('click', click_event_a_9face1e8c3da448d);
	var group_a_72583735992b084e = document.querySelector('#a_72583735992b084e'); 
	group_a_72583735992b084e.addEventListener('click', click_event_a_72583735992b084e);
	var group_a_f77eff44406a5a7f = document.querySelector('#a_f77eff44406a5a7f'); 
	group_a_f77eff44406a5a7f.addEventListener('click', click_event_a_f77eff44406a5a7f);
	var group_a_aabf0b19b1055948 = document.querySelector('#a_aabf0b19b1055948'); 
	group_a_aabf0b19b1055948.addEventListener('click', click_event_a_aabf0b19b1055948);
	var group_a_13a04f86dc1bc482 = document.querySelector('#a_13a04f86dc1bc482'); 
	group_a_13a04f86dc1bc482.addEventListener('click', click_event_a_13a04f86dc1bc482);
	var group_a_e559a239ecef1777 = document.querySelector('#a_e559a239ecef1777'); 
	group_a_e559a239ecef1777.addEventListener('click', click_event_a_e559a239ecef1777);
	var group_a_5be459bc93a8c61a = document.querySelector('#a_5be459bc93a8c61a'); 
	group_a_5be459bc93a8c61a.addEventListener('click', click_event_a_5be459bc93a8c61a);
	var group_a_a372b5be7af54ab2 = document.querySelector('#a_a372b5be7af54ab2'); 
	group_a_a372b5be7af54ab2.addEventListener('click', click_event_a_a372b5be7af54ab2);
	var group_a_35f88842a20fadbf = document.querySelector('#a_35f88842a20fadbf'); 
	group_a_35f88842a20fadbf.addEventListener('click', click_event_a_35f88842a20fadbf);
	var group_a_e5910303d72a31bb = document.querySelector('#a_e5910303d72a31bb'); 
	group_a_e5910303d72a31bb.addEventListener('click', click_event_a_e5910303d72a31bb);
	var group_a_5da57911ced95144 = document.querySelector('#a_5da57911ced95144'); 
	group_a_5da57911ced95144.addEventListener('click', click_event_a_5da57911ced95144);
	var group_a_c7f120dda71e6cfb = document.querySelector('#a_c7f120dda71e6cfb'); 
	group_a_c7f120dda71e6cfb.addEventListener('click', click_event_a_c7f120dda71e6cfb);
	var group_a_8dc70b68afaeac6b = document.querySelector('#a_8dc70b68afaeac6b'); 
	group_a_8dc70b68afaeac6b.addEventListener('click', click_event_a_8dc70b68afaeac6b);
	var group_a_9bcb85bcfb826d94 = document.querySelector('#a_9bcb85bcfb826d94'); 
	group_a_9bcb85bcfb826d94.addEventListener('click', click_event_a_9bcb85bcfb826d94);
}
	function click_event_a_9face1e8c3da448d(evt) {
	  var svgobj = document.querySelector('#t_9d9291af8bfcb3cf');
	  if (svgobj.classList.contains('oedepict-hidden')) {
	    svgobj.classList.remove('oedepict-hidden');
	    svgobj.classList.add('oedepict-visible');
	  }
	  else {
	    svgobj.classList.remove('oedepict-visible');
	    svgobj.classList.add('oedepict-hidden');
	  }
	}

	function click_event_a_72583735992b084e(evt) {
	  var svgobj = document.querySelector('#t_2efe53acb1cfccc0');
	  if (svgobj.classList.contains('oedepict-hidden')) {
	    svgobj.classList.remove('oedepict-hidden');
	    svgobj.classList.add('oedepict-visible');
	  }
	  else {
	    svgobj.classList.remove('oedepict-visible');
	    svgobj.classList.add('oedepict-hidden');
	  }
	}

	function click_event_a_f77eff44406a5a7f(evt) {
	  var svgobj = document.querySelector('#t_da27a24d3954d0ea');
	  if (svgobj.classList.contains('oedepict-hidden')) {
	    svgobj.classList.remove('oedepict-hidden');
	    svgobj.classList.add('oedepict-visible');
	  }
	  else {
	    svgobj.classList.remove('oedepict-visible');
	    svgobj.classList.add('oedepict-hidden');
	  }
	}

	function click_event_a_aabf0b19b1055948(evt) {
	  var svgobj = document.querySelector('#t_43c6ea561ab4369b');
	  if (svgobj.classList.contains('oedepict-hidden')) {
	    svgobj.classList.remove('oedepict-hidden');
	    svgobj.classList.add('oedepict-visible');
	  }
	  else {
	    svgobj.classList.remove('oedepict-visible');
	    svgobj.classList.add('oedepict-hidden');
	  }
	}

	function click_event_a_13a04f86dc1bc482(evt) {
	  var svgobj = document.querySelector('#t_e09df61f0c22247a');
	  if (svgobj.classList.contains('oedepict-hidden')) {
	    svgobj.classList.remove('oedepict-hidden');
	    svgobj.classList.add('oedepict-visible');
	  }
	  else {
	    svgobj.classList.remove('oedepict-visible');
	    svgobj.classList.add('oedepict-hidden');
	  }
	}

	function click_event_a_e559a239ecef1777(evt) {
	  var svgobj = document.querySelector('#t_62ce4b60447bd1f4');
	  if (svgobj.classList.contains('oedepict-hidden')) {
	    svgobj.classList.remove('oedepict-hidden');
	    svgobj.classList.add('oedepict-visible');
	  }
	  else {
	    svgobj.classList.remove('oedepict-visible');
	    svgobj.classList.add('oedepict-hidden');
	  }
	}

	function click_event_a_5be459bc93a8c61a(evt) {
	  var svgobj = document.querySelector('#t_628589edcebcf963');
	  if (svgobj.classList.contains('oedepict-hidden')) {
	    svgobj.classList.remove('oedepict-hidden');
	    svgobj.classList.add('oedepict-visible');
	  }
	  else {
	    svgobj.classList.remove('oedepict-visible');
	    svgobj.classList.add('oedepict-hidden');
	  }
	}

	function click_event_a_a372b5be7af54ab2(evt) {
	  var svgobj = document.querySelector('#t_409a740c285bc3d2');
	  if (svgobj.classList.contains('oedepict-hidden')) {
	    svgobj.classList.remove('oedepict-hidden');
	    svgobj.classList.add('oedepict-visible');
	  }
	  else {
	    svgobj.classList.remove('oedepict-visible');
	    svgobj.classList.add('oedepict-hidden');
	  }
	}

	function click_event_a_35f88842a20fadbf(evt) {
	  var svgobj = document.querySelector('#t_2e92e0e1e15b4a42');
	  if (svgobj.classList.contains('oedepict-hidden')) {
	    svgobj.classList.remove('oedepict-hidden');
	    svgobj.classList.add('oedepict-visible');
	  }
	  else {
	    svgobj.classList.remove('oedepict-visible');
	    svgobj.classList.add('oedepict-hidden');
	  }
	}

	function click_event_a_e5910303d72a31bb(evt) {
	  var svgobj = document.querySelector('#t_832115196468e46a');
	  if (svgobj.classList.contains('oedepict-hidden')) {
	    svgobj.classList.remove('oedepict-hidden');
	    svgobj.classList.add('oedepict-visible');
	  }
	  else {
	    svgobj.classList.remove('oedepict-visible');
	    svgobj.classList.add('oedepict-hidden');
	  }
	}

	function click_event_a_5da57911ced95144(evt) {
	  var svgobj = document.querySelector('#t_af4ab12a5b0976e4');
	  if (svgobj.classList.contains('oedepict-hidden')) {
	    svgobj.classList.remove('oedepict-hidden');
	    svgobj.classList.add('oedepict-visible');
	  }
	  else {
	    svgobj.classList.remove('oedepict-visible');
	    svgobj.classList.add('oedepict-hidden');
	  }
	}

	function click_event_a_c7f120dda71e6cfb(evt) {
	  var svgobj = document.querySelector('#t_71201c922d181ac8');
	  if (svgobj.classList.contains('oedepict-hidden')) {
	    svgobj.classList.remove('oedepict-hidden');
	    svgobj.classList.add('oedepict-visible');
	  }
	  else {
	    svgobj.classList.remove('oedepict-visible');
	    svgobj.classList.add('oedepict-hidden');
	  }
	}

	function click_event_a_8dc70b68afaeac6b(evt) {
	  var svgobj = document.querySelector('#t_8bba38f50b1d7ca0');
	  if (svgobj.classList.contains('oedepict-hidden')) {
	    svgobj.classList.remove('oedepict-hidden');
	    svgobj.classList.add('oedepict-visible');
	  }
	  else {
	    svgobj.classList.remove('oedepict-visible');
	    svgobj.classList.add('oedepict-hidden');
	  }
	}

	function click_event_a_9bcb85bcfb826d94(evt) {
	  var svgobj = document.querySelector('#t_15c6435fe7eb1890');
	  if (svgobj.classList.contains('oedepict-hidden')) {
	    svgobj.classList.remove('oedepict-hidden');
	    svgobj.classList.add('oedepict-visible');
	  }
	  else {
	    svgobj.classList.remove('oedepict-visible');
	    svgobj.classList.add('oedepict-hidden');
	  }
	}

]]>
 </script>
<rect width="400.00" height="200.00" fill="white" />
<line x1="171.49" y1="176.70" x2="135.41" y2="155.79" stroke="black" stroke-width="2" stroke-linejoin="round" stroke-linecap="round" />
<line x1="135.41" y1="155.79" x2="135.41" y2="113.87" stroke="black" stroke-width="2" stroke-linejoin="round" stroke-linecap="round" />
<line x1="127.73" y1="149.09" x2="127.73" y2="120.58" stroke="black" stroke-width="2" stroke-linejoin="round" stroke-linecap="round" />
<line x1="135.41" y1="155.79" x2="99.23" y2="176.54" stroke="black" stroke-width="2" stroke-linejoin="round" stroke-linecap="round" />
<line x1="99.23" y1="176.54" x2="63.05" y2="155.79" stroke="black" stroke-width="2" stroke-linejoin="round" stroke-linecap="round" />
<line x1="97.26" y1="166.57" x2="72.65" y2="152.46" stroke="black" stroke-width="2" stroke-linejoin="round" stroke-linecap="round" />
<line x1="63.05" y1="155.79" x2="63.05" y2="113.87" stroke="black" stroke-width="2" stroke-linejoin="round" stroke-linecap="round" />
<line x1="81.14" y1="103.29" x2="63.05" y2="113.87" stroke="black" stroke-width="2" stroke-linejoin="round" stroke-linecap="round" />
<line x1="81.14" y1="103.29" x2="90.43" y2="97.85" stroke="blue" stroke-width="2" stroke-linejoin="round" stroke-linecap="round" />
<line x1="85.01" y1="109.91" x2="72.71" y2="117.11" stroke="black" stroke-width="2" stroke-linejoin="round" stroke-linecap="round" />
<line x1="85.01" y1="109.91" x2="97.31" y2="102.71" stroke="blue" stroke-width="2" stroke-linejoin="round" stroke-linecap="round" />
<line x1="117.32" y1="103.29" x2="108.02" y2="97.85" stroke="blue" stroke-width="2" stroke-linejoin="round" stroke-linecap="round" />
<line x1="117.32" y1="103.29" x2="135.41" y2="113.87" stroke="black" stroke-width="2" stroke-linejoin="round" stroke-linecap="round" />
<line x1="135.41" y1="113.87" x2="171.58" y2="93.13" stroke="black" stroke-width="2" stroke-linejoin="round" stroke-linecap="round" />
<line x1="171.58" y1="93.13" x2="207.64" y2="114.09" stroke="black" stroke-width="2" stroke-linejoin="round" stroke-linecap="round" />
<line x1="173.50" y1="103.11" x2="198.01" y2="117.37" stroke="black" stroke-width="2" stroke-linejoin="round" stroke-linecap="round" />
<line x1="207.64" y1="114.09" x2="243.82" y2="93.34" stroke="black" stroke-width="2" stroke-linejoin="round" stroke-linecap="round" />
<line x1="243.82" y1="93.34" x2="279.87" y2="114.30" stroke="black" stroke-width="2" stroke-linejoin="round" stroke-linecap="round" />
<line x1="275.97" y1="135.14" x2="276.04" y2="114.29" stroke="black" stroke-width="2" stroke-linejoin="round" stroke-linecap="round" />
<line x1="275.97" y1="135.14" x2="275.95" y2="144.28" stroke="red" stroke-width="2" stroke-linejoin="round" stroke-linecap="round" />
<line x1="283.65" y1="135.16" x2="283.71" y2="114.31" stroke="black" stroke-width="2" stroke-linejoin="round" stroke-linecap="round" />
<line x1="283.65" y1="135.16" x2="283.62" y2="144.30" stroke="red" stroke-width="2" stroke-linejoin="round" stroke-linecap="round" />
<line x1="297.96" y1="103.93" x2="279.87" y2="114.30" stroke="black" stroke-width="2" stroke-linejoin="round" stroke-linecap="round" />
<line x1="297.96" y1="103.93" x2="305.89" y2="99.38" stroke="red" stroke-width="2" stroke-linejoin="round" stroke-linecap="round" />
<polygon points="243.82,93.34 248.91,63.36 238.90,63.33 " fill="red" stroke="red" stroke-width="2" stroke-linejoin="round" stroke-linecap="round" />
<polygon points="243.82,93.34 246.36,78.35 241.36,78.34 " fill="black" stroke="black" stroke-width="2" stroke-linejoin="round" stroke-linecap="round" />
<text x="99.23" y="98.64" fill="blue" font-family="Arial" font-size="18" font-style="normal" font-weight="normal" text-anchor="middle">  N </text>
<text x="279.75" y="161.94" fill="red" font-family="Arial" font-size="18" font-style="normal" font-weight="normal" text-anchor="middle">  O </text>
<text x="316.05" y="99.49" fill="red" font-family="Arial" font-size="18" font-style="normal" font-weight="normal" text-anchor="middle">  O </text>
<text x="329.82" y="99.49" fill="red" font-family="Arial" font-size="18" font-style="normal" font-weight="normal" text-anchor="middle">  H </text>
<text x="243.94" y="57.58" fill="red" font-family="Arial" font-size="18" font-style="normal" font-weight="normal" text-anchor="middle">  O </text>
<text x="257.71" y="57.58" fill="red" font-family="Arial" font-size="18" font-style="normal" font-weight="normal" text-anchor="middle">  H </text>
<g id='t_9d9291af8bfcb3cf' class='oedepict-hidden'>
<path d="M 149.75 174.82 L 211.27 174.82 C 212.71 174.82 213.88 175.98 213.88 177.42 L 213.88 186.42 C 213.88 187.86 212.71 189.03 211.27 189.03 L 149.75 189.03 C 148.31 189.03 147.15 187.86 147.15 186.42 L 147.15 177.42 C 147.15 175.98 148.31 174.82 149.75 174.82 Z" fill="#ffffdc" fill-opacity="0.78" />
<text x="180.51" y="185.92" fill="#a00" font-family="Arial" font-size="12" font-style="normal" font-weight="normal" text-anchor="middle">  atom idx=0 </text>
</g>
<g id='a_9face1e8c3da448d' class='oedepict-visible oedepict-hover'>
<circle cx="171.49" cy="176.70" r="10.43" fill="white" fill-opacity="0.00" stroke="#ffff9b" stroke-opacity="0.00" stroke-linejoin="round" stroke-linecap="round" />
</g>
<g id='t_2efe53acb1cfccc0' class='oedepict-hidden'>
<path d="M 104.62 159.11 L 166.14 159.11 C 167.58 159.11 168.75 160.28 168.75 161.72 L 168.75 170.72 C 168.75 172.16 167.58 173.33 166.14 173.33 L 104.62 173.33 C 103.18 173.33 102.02 172.16 102.02 170.72 L 102.02 161.72 C 102.02 160.28 103.18 159.11 104.62 159.11 Z" fill="#ffffdc" fill-opacity="0.78" />
<text x="135.38" y="170.22" fill="#a00" font-family="Arial" font-size="12" font-style="normal" font-weight="normal" text-anchor="middle">  atom idx=1 </text>
</g>
<g id='a_72583735992b084e' class='oedepict-visible oedepict-hover'>
<circle cx="135.41" cy="155.79" r="10.43" fill="white" fill-opacity="0.00" stroke="#ffff9b" stroke-opacity="0.00" stroke-linejoin="round" stroke-linecap="round" />
</g>
<g id='t_da27a24d3954d0ea' class='oedepict-hidden'>
<path d="M 68.47 184.03 L 129.99 184.03 C 131.43 184.03 132.59 185.20 132.59 186.64 L 132.59 195.64 C 132.59 197.08 131.43 198.24 129.99 198.24 L 68.47 198.24 C 67.03 198.24 65.86 197.08 65.86 195.64 L 65.86 186.64 C 65.86 185.20 67.03 184.03 68.47 184.03 Z" fill="#ffffdc" fill-opacity="0.78" />
<text x="99.23" y="195.14" fill="#a00" font-family="Arial" font-size="12" font-style="normal" font-weight="normal" text-anchor="middle">  atom idx=2 </text>
</g>
<g id='a_f77eff44406a5a7f' class='oedepict-visible oedepict-hover'>
<circle cx="99.23" cy="176.54" r="10.43" fill="white" fill-opacity="0.00" stroke="#ffff9b" stroke-opacity="0.00" stroke-linejoin="round" stroke-linecap="round" />
</g>
<g id='t_43c6ea561ab4369b' class='oedepict-hidden'>
<path d="M 19.69 156.06 L 81.21 156.06 C 82.65 156.06 83.82 157.23 83.82 158.67 L 83.82 167.67 C 83.82 169.11 82.65 170.27 81.21 170.27 L 19.69 170.27 C 18.25 170.27 17.08 169.11 17.08 167.67 L 17.08 158.67 C 17.08 157.23 18.25 156.06 19.69 156.06 Z" fill="#ffffdc" fill-opacity="0.78" />
<text x="50.45" y="167.17" fill="#a00" font-family="Arial" font-size="12" font-style="normal" font-weight="normal" text-anchor="middle">  atom idx=3 </text>
</g>
<g id='a_aabf0b19b1055948' class='oedepict-visible oedepict-hover'>
<circle cx="63.05" cy="155.79" r="10.43" fill="white" fill-opacity="0.00" stroke="#ffff9b" stroke-opacity="0.00" stroke-linejoin="round" stroke-linecap="round" />
</g>
<g id='t_e09df61f0c22247a' class='oedepict-hidden'>
<path d="M 19.63 99.50 L 81.15 99.50 C 82.59 99.50 83.75 100.67 83.75 102.11 L 83.75 111.11 C 83.75 112.55 82.59 113.72 81.15 113.72 L 19.63 113.72 C 18.19 113.72 17.02 112.55 17.02 111.11 L 17.02 102.11 C 17.02 100.67 18.19 99.50 19.63 99.50 Z" fill="#ffffdc" fill-opacity="0.78" />
<text x="50.39" y="110.61" fill="#a00" font-family="Arial" font-size="12" font-style="normal" font-weight="normal" text-anchor="middle">  atom idx=4 </text>
</g>
<g id='a_13a04f86dc1bc482' class='oedepict-visible oedepict-hover'>
<circle cx="63.05" cy="113.87" r="10.43" fill="white" fill-opacity="0.00" stroke="#ffff9b" stroke-opacity="0.00" stroke-linejoin="round" stroke-linecap="round" />
</g>
<g id='t_62ce4b60447bd1f4' class='oedepict-hidden'>
<path d="M 68.47 67.87 L 129.99 67.87 C 131.43 67.87 132.59 69.04 132.59 70.47 L 132.59 79.47 C 132.59 80.91 131.43 82.08 129.99 82.08 L 68.47 82.08 C 67.03 82.08 65.86 80.91 65.86 79.47 L 65.86 70.47 C 65.86 69.04 67.03 67.87 68.47 67.87 Z" fill="#ffffdc" fill-opacity="0.78" />
<text x="99.23" y="78.97" fill="#a00" font-family="Arial" font-size="12" font-style="normal" font-weight="normal" text-anchor="middle">  atom idx=5 </text>
</g>
<g id='a_e559a239ecef1777' class='oedepict-visible oedepict-hover'>
<circle cx="99.23" cy="92.70" r="10.43" fill="white" fill-opacity="0.00" stroke="#ffff9b" stroke-opacity="0.00" stroke-linejoin="round" stroke-linecap="round" />
</g>
<g id='t_628589edcebcf963' class='oedepict-hidden'>
<path d="M 104.69 96.34 L 166.21 96.34 C 167.65 96.34 168.82 97.51 168.82 98.95 L 168.82 107.95 C 168.82 109.39 167.65 110.55 166.21 110.55 L 104.69 110.55 C 103.25 110.55 102.09 109.39 102.09 107.95 L 102.09 98.95 C 102.09 97.51 103.25 96.34 104.69 96.34 Z" fill="#ffffdc" fill-opacity="0.78" />
<text x="135.45" y="107.45" fill="#a00" font-family="Arial" font-size="12" font-style="normal" font-weight="normal" text-anchor="middle">  atom idx=6 </text>
</g>
<g id='a_5be459bc93a8c61a' class='oedepict-visible oedepict-hover'>
<circle cx="135.41" cy="113.87" r="10.43" fill="white" fill-opacity="0.00" stroke="#ffff9b" stroke-opacity="0.00" stroke-linejoin="round" stroke-linecap="round" />
</g>
<g id='t_409a740c285bc3d2' class='oedepict-hidden'>
<path d="M 140.87 71.42 L 202.39 71.42 C 203.83 71.42 204.99 72.59 204.99 74.03 L 204.99 83.03 C 204.99 84.47 203.83 85.64 202.39 85.64 L 140.87 85.64 C 139.43 85.64 138.26 84.47 138.26 83.03 L 138.26 74.03 C 138.26 72.59 139.43 71.42 140.87 71.42 Z" fill="#ffffdc" fill-opacity="0.78" />
<text x="171.63" y="82.53" fill="#a00" font-family="Arial" font-size="12" font-style="normal" font-weight="normal" text-anchor="middle">  atom idx=7 </text>
</g>
<g id='a_a372b5be7af54ab2' class='oedepict-visible oedepict-hover'>
<circle cx="171.58" cy="93.13" r="10.43" fill="white" fill-opacity="0.00" stroke="#ffff9b" stroke-opacity="0.00" stroke-linejoin="round" stroke-linecap="round" />
</g>
<g id='t_2e92e0e1e15b4a42' class='oedepict-hidden'>
<path d="M 176.84 121.58 L 238.36 121.58 C 239.80 121.58 240.96 122.74 240.96 124.18 L 240.96 133.18 C 240.96 134.62 239.80 135.79 238.36 135.79 L 176.84 135.79 C 175.40 135.79 174.23 134.62 174.23 133.18 L 174.23 124.18 C 174.23 122.74 175.40 121.58 176.84 121.58 Z" fill="#ffffdc" fill-opacity="0.78" />
<text x="207.60" y="132.68" fill="#a00" font-family="Arial" font-size="12" font-style="normal" font-weight="normal" text-anchor="middle">  atom idx=8 </text>
</g>
<g id='a_35f88842a20fadbf' class='oedepict-visible oedepict-hover'>
<circle cx="207.64" cy="114.09" r="10.43" fill="white" fill-opacity="0.00" stroke="#ffff9b" stroke-opacity="0.00" stroke-linejoin="round" stroke-linecap="round" />
</g>
<g id='t_832115196468e46a' class='oedepict-hidden'>
<path d="M 213.03 96.66 L 274.55 96.66 C 275.99 96.66 277.15 97.83 277.15 99.27 L 277.15 108.27 C 277.15 109.71 275.99 110.87 274.55 110.87 L 213.03 110.87 C 211.59 110.87 210.42 109.71 210.42 108.27 L 210.42 99.27 C 210.42 97.83 211.59 96.66 213.03 96.66 Z" fill="#ffffdc" fill-opacity="0.78" />
<text x="243.79" y="107.77" fill="#a00" font-family="Arial" font-size="12" font-style="normal" font-weight="normal" text-anchor="middle">  atom idx=9 </text>
</g>
<g id='a_e5910303d72a31bb' class='oedepict-visible oedepict-hover'>
<circle cx="243.82" cy="93.34" r="10.43" fill="white" fill-opacity="0.00" stroke="#ffff9b" stroke-opacity="0.00" stroke-linejoin="round" stroke-linecap="round" />
</g>
<g id='t_af4ab12a5b0976e4' class='oedepict-hidden'>
<path d="M 245.54 96.77 L 314.26 96.77 C 315.70 96.77 316.87 97.93 316.87 99.37 L 316.87 108.37 C 316.87 109.81 315.70 110.98 314.26 110.98 L 245.54 110.98 C 244.10 110.98 242.94 109.81 242.94 108.37 L 242.94 99.37 C 242.94 97.93 244.10 96.77 245.54 96.77 Z" fill="#ffffdc" fill-opacity="0.78" />
<text x="279.90" y="107.87" fill="#a00" font-family="Arial" font-size="12" font-style="normal" font-weight="normal" text-anchor="middle">  atom idx=11 </text>
</g>
<g id='a_5da57911ced95144' class='oedepict-visible oedepict-hover'>
<circle cx="279.87" cy="114.30" r="10.43" fill="white" fill-opacity="0.00" stroke="#ffff9b" stroke-opacity="0.00" stroke-linejoin="round" stroke-linecap="round" />
</g>
<g id='t_71201c922d181ac8' class='oedepict-hidden'>
<path d="M 245.34 166.62 L 314.06 166.62 C 315.50 166.62 316.66 167.79 316.66 169.23 L 316.66 178.23 C 316.66 179.67 315.50 180.83 314.06 180.83 L 245.34 180.83 C 243.90 180.83 242.73 179.67 242.73 178.23 L 242.73 169.23 C 242.73 167.79 243.90 166.62 245.34 166.62 Z" fill="#ffffdc" fill-opacity="0.78" />
<text x="279.70" y="177.73" fill="#a00" font-family="Arial" font-size="12" font-style="normal" font-weight="normal" text-anchor="middle">  atom idx=12 </text>
</g>
<g id='a_c7f120dda71e6cfb' class='oedepict-visible oedepict-hover'>
<circle cx="279.75" cy="156.00" r="10.43" fill="white" fill-opacity="0.00" stroke="#ffff9b" stroke-opacity="0.00" stroke-linejoin="round" stroke-linecap="round" />
</g>
<g id='t_8bba38f50b1d7ca0' class='oedepict-hidden'>
<path d="M 304.75 73.22 L 373.47 73.22 C 374.91 73.22 376.08 74.39 376.08 75.83 L 376.08 84.83 C 376.08 86.27 374.91 87.43 373.47 87.43 L 304.75 87.43 C 303.32 87.43 302.15 86.27 302.15 84.83 L 302.15 75.83 C 302.15 74.39 303.32 73.22 304.75 73.22 Z" fill="#ffffdc" fill-opacity="0.78" />
<text x="339.11" y="84.33" fill="#a00" font-family="Arial" font-size="12" font-style="normal" font-weight="normal" text-anchor="middle">  atom idx=13 </text>
</g>
<g id='a_8dc70b68afaeac6b' class='oedepict-visible oedepict-hover'>
<circle cx="316.05" cy="93.55" r="10.43" fill="white" fill-opacity="0.00" stroke="#ffff9b" stroke-opacity="0.00" stroke-linejoin="round" stroke-linecap="round" />
</g>
<g id='t_15c6435fe7eb1890' class='oedepict-hidden'>
<path d="M 209.63 26.80 L 278.35 26.80 C 279.79 26.80 280.96 27.97 280.96 29.41 L 280.96 38.41 C 280.96 39.85 279.79 41.02 278.35 41.02 L 209.63 41.02 C 208.19 41.02 207.03 39.85 207.03 38.41 L 207.03 29.41 C 207.03 27.97 208.19 26.80 209.63 26.80 Z" fill="#ffffdc" fill-opacity="0.78" />
<text x="243.99" y="37.91" fill="#a00" font-family="Arial" font-size="12" font-style="normal" font-weight="normal" text-anchor="middle">  atom idx=14 </text>
</g>
<g id='a_9bcb85bcfb826d94' class='oedepict-visible oedepict-hover'>
<circle cx="243.94" cy="51.64" r="10.43" fill="white" fill-opacity="0.00" stroke="#ffff9b" stroke-opacity="0.00" stroke-linejoin="round" stroke-linecap="round" />
</g>
</svg>
